<svg width="960" height="240" viewBox="0 0 960 240" fill="none" xmlns="http://www.w3.org/2000/svg" role="img" aria-labelledby="title desc">
  <title id="title">UmmahConnect logo</title>
  <desc id="desc">A gold crescent and connected community mark beside the UmmahConnect wordmark.</desc>
  <rect width="960" height="240" rx="0" fill="#0B0F0E"/>
  <g transform="translate(72 40)">
    <circle cx="80" cy="80" r="72" fill="#C9A84C"/>
    <circle cx="104" cy="68" r="68" fill="#0B0F0E"/>
    <path d="M126 116C111.6 130.9 91.4 140 69 140C40.8 140 16.1 125.3 2 103.2C11.3 133.2 39.2 155 72 155C101.9 155 127.6 137.1 139 111.5C135.1 113.5 130.8 115 126 116Z" fill="#C9A84C"/>
    <circle cx="74" cy="70" r="12" fill="#5ECDB5"/>
    <circle cx="112" cy="94" r="9" fill="#5ECDB5"/>
    <circle cx="58" cy="112" r="8" fill="#5ECDB5"/>
    <path d="M74 70L112 94M112 94L58 112M58 112L74 70" stroke="#5ECDB5" stroke-width="5" stroke-linecap="round" stroke-linejoin="round"/>
    <circle cx="142" cy="42" r="7" fill="#C9A84C"/>
    <circle cx="151" cy="67" r="4" fill="#C9A84C"/>
    <circle cx="131" cy="21" r="4" fill="#C9A84C"/>
  </g>
  <g transform="translate(260 76)">
    <text x="0" y="54" fill="#F5D78A" font-family="Georgia, 'Times New Roman', serif" font-size="58" font-weight="700" letter-spacing="0">
      Ummah
    </text>
    <text x="220" y="54" fill="#FFFFFF" font-family="Georgia, 'Times New Roman', serif" font-size="58" font-weight="700" letter-spacing="0">
      Connect
    </text>
    <text x="3" y="94" fill="#8EA19D" font-family="Arial, sans-serif" font-size="18" font-weight="400" letter-spacing="3">
      FAITH. CAREER. COMMUNITY.
    </text>
  </g>
</svg>
